<?xml version="1.0" encoding="iso-8859-1"?>
<!-- Generator: Adobe Illustrator 19.0.0, SVG Export Plug-In . SVG Version: 6.00 Build 0)  -->
<svg version="1.1" id="Layer_1" xmlns="http://www.w3.org/2000/svg" xmlns:xlink="http://www.w3.org/1999/xlink" x="0px" y="0px"
	 viewBox="0 0 512 512" style="enable-background:new 0 0 512 512;" xml:space="preserve">
<path style="fill:#E21B1B;" d="M485.216,421.564L485.216,421.564l-70.4-70.336l-15.448-15.432c-17.552-17.528-46-17.512-63.528,0.04
	c-17.528,17.552-17.512,46,0.04,63.528l0,0l26.664,26.64l0.104,0.128l27.016,26.992l58.832,58.776L512,448.316L485.216,421.564z"/>
<ellipse cx="216.96" cy="216.98" rx="216.96" ry="216.88"/>
<ellipse style="fill:#FFFFFF;" cx="216.96" cy="216.98" rx="180.632" ry="180.512"/>
<path style="fill:#CCCCCC;" d="M216.992,377.316C128.448,377.268,56.704,305.444,56.76,216.9
	c0.056-88.552,71.88-160.288,160.424-160.232c88.512,0.056,160.232,71.816,160.232,160.328
	C377.288,305.524,305.52,377.244,216.992,377.316z M216.992,72.668C137.28,72.732,72.712,137.396,72.768,217.1
	s64.72,144.28,144.432,144.224c79.672-0.056,144.232-64.664,144.224-144.336C361.304,137.292,296.696,72.732,216.992,72.668z"/>
<g>
	<path style="fill:#E21B1B;" d="M216.992,378.108c-88.976-0.064-161.056-72.24-161-161.208c0.056-88.976,72.232-161.064,161.208-161
		c88.928,0.056,160.992,72.168,161,161.096C378.072,305.956,305.96,378.028,216.992,378.108z M216.992,59.9
		c-86.768,0.056-157.056,70.44-157,157.2c0.056,86.768,70.44,157.064,157.208,157c86.728-0.056,157.008-70.384,157-157.112
		c-0.128-86.752-70.456-157.032-157.208-157.096V59.9z"/>
	<path style="fill:#E21B1B;" d="M100.072,211.932l80.688-37.512v17.816l-61.016,26.728v0.336l61.016,26.728v17.816l-80.688-37.424
		C100.072,226.42,100.072,211.932,100.072,211.932z"/>
</g>
<path d="M193.216,270.588l36-121.872h16.976l-36,121.872H193.216z"/>
<path style="fill:#E21B1B;" d="M336.608,226.884l-80.68,36.984v-17.824l62.4-26.728v-0.336l-62.4-26.728v-17.84l80.688,36.984
	L336.608,226.884z"/>
<g>
</g>
<g>
</g>
<g>
</g>
<g>
</g>
<g>
</g>
<g>
</g>
<g>
</g>
<g>
</g>
<g>
</g>
<g>
</g>
<g>
</g>
<g>
</g>
<g>
</g>
<g>
</g>
<g>
</g>
</svg>
